<svg height="320" viewBox="0 0 400 320" width="400" xmlns="http://www.w3.org/2000/svg"><style>.wire{fill:none!important;}.point{stroke:none!important;}.generator__0-0--0-pos{fill:#2980b9;stroke:#2980b9;}.generator__0-0--0-zer{fill:#7bb9e2;stroke:#7bb9e2;}.generator__0-0--0-neg{fill:#194f72;stroke:#194f72;}.generator__0-0--1-pos{fill:#3896d3;stroke:#3896d3;}.generator__0-0--1-zer{fill:#9ccbe9;stroke:#9ccbe9;}.generator__0-0--1-neg{fill:#216693;stroke:#216693;}.generator__0-0--2-pos{fill:#59a7da;stroke:#59a7da;}.generator__0-0--2-zer{fill:#bedcf0;stroke:#bedcf0;}.generator__0-0--2-neg{fill:#287db5;stroke:#287db5;}.generator__1-0--0-pos{fill:#c0392b;stroke:#c0392b;}.generator__1-0--0-zer{fill:#e38b82;stroke:#e38b82;}.generator__1-0--0-neg{fill:#79241b;stroke:#79241b;}.generator__1-0--1-pos{fill:#d44e40;stroke:#d44e40;}.generator__1-0--1-zer{fill:#ebaaa4;stroke:#ebaaa4;}.generator__1-0--1-neg{fill:#9a2e23;stroke:#9a2e23;}.generator__1-0--2-pos{fill:#dc6d61;stroke:#dc6d61;}.generator__1-0--2-zer{fill:#f2c9c5;stroke:#f2c9c5;}.generator__1-0--2-neg{fill:#bc382a;stroke:#bc382a;}.generator__2-1--0-pos{fill:#f39c12;stroke:#f39c12;}.generator__2-1--0-zer{fill:#f9cd87;stroke:#f9cd87;}.generator__2-1--0-neg{fill:#a66908;stroke:#a66908;}.generator__2-1--1-pos{fill:#f5ac39;stroke:#f5ac39;}.generator__2-1--1-zer{fill:#fbddad;stroke:#fbddad;}.generator__2-1--1-neg{fill:#cd820a;stroke:#cd820a;}.generator__2-1--2-pos{fill:#f7bc60;stroke:#f7bc60;}.generator__2-1--2-zer{fill:#7f5006;stroke:#7f5006;}.generator__2-1--2-neg{fill:#f39a0d;stroke:#f39a0d;}.generator__3-1--0-pos{fill:#8e44ad;stroke:#8e44ad;}.generator__3-1--0-zer{fill:#c396d6;stroke:#c396d6;}.generator__3-1--0-neg{fill:#5b2c6f;stroke:#5b2c6f;}.generator__3-1--1-pos{fill:#a15bbf;stroke:#a15bbf;}.generator__3-1--1-zer{fill:#d4b3e1;stroke:#d4b3e1;}.generator__3-1--1-neg{fill:#73378c;stroke:#73378c;}.generator__3-1--2-pos{fill:#b278ca;stroke:#b278ca;}.generator__3-1--2-zer{fill:#e4d0ed;stroke:#e4d0ed;}.generator__3-1--2-neg{fill:#8b43a9;stroke:#8b43a9;}.generator__4-2--0-pos{fill:#27ae60;stroke:#27ae60;}.generator__4-2--0-zer{fill:#70df9f;stroke:#70df9f;}.generator__4-2--0-neg{fill:#d4f5e2;stroke:#d4f5e2;}.generator__4-2--1-pos{fill:#2ecf72;stroke:#2ecf72;}.generator__4-2--1-zer{fill:#92e7b6;stroke:#92e7b6;}.generator__4-2--1-neg{fill:#1f894b;stroke:#1f894b;}.generator__4-2--2-pos{fill:#4fd889;stroke:#4fd889;}.generator__4-2--2-zer{fill:#b3eecc;stroke:#b3eecc;}.generator__4-2--2-neg{fill:#26aa5e;stroke:#26aa5e;}.generator__5-2--0-pos{fill:#f1c40f;stroke:#f1c40f;}.generator__5-2--0-zer{fill:#f8e083;stroke:#f8e083;}.generator__5-2--0-neg{fill:#a08209;stroke:#a08209;}.generator__5-2--1-pos{fill:#f3cd36;stroke:#f3cd36;}.generator__5-2--1-zer{fill:#faeaa9;stroke:#faeaa9;}.generator__5-2--1-neg{fill:#c7a10c;stroke:#c7a10c;}.generator__5-2--2-pos{fill:#f5d75c;stroke:#f5d75c;}.generator__5-2--2-zer{fill:#fcf3d0;stroke:#fcf3d0;}.generator__5-2--2-neg{fill:#edc10e;stroke:#edc10e;}</style><title>$D$</title><path d="M 80 320L 160 320L 160 200C 160 168, 176 160, 200 160C 224.00002 160, 240 168, 240 200C 240 232, 256 240, 280 240C 304 240, 320 232, 320 200L 320 120C 320 88, 272 80, 200 80C 128 80, 80 88, 80 120L 80 320" class="generator__0-0--0-pos surface"></path><path d="M 0 320L 80 320L 80 120C 80 88, 128 80, 200 80C 272 80, 320 88, 320 120L 320 200C 320 232, 304 240, 280 240C 256 240, 240 232, 240 200C 240 168, 224.00002 160, 200 160C 176 160, 160 168, 160 200L 160 320L 400 320L 400 0L 0 0L 0 320" class="generator__1-0--0-pos surface"></path><path d="M 80 320L 80 280" stroke-width="8" class="generator__3-1--0-pos wire"></path><path d="M 160 320L 160 280" stroke-width="8" class="generator__2-1--0-pos wire"></path><path d="M 80 280C 80 248, 80 240, 80 240" stroke-width="8" class="generator__3-1--0-pos wire"></path><path d="M 160 280C 160 248, 160 240, 160 240" stroke-width="8" class="generator__2-1--0-pos wire"></path><path d="M 80 240C 80 240, 80 232, 80 200" stroke-width="8" class="generator__3-1--0-pos wire"></path><path d="M 160 240C 160 240, 160 232, 160 200" stroke-width="8" class="generator__2-1--0-pos wire"></path><path d="M 280 240C 256 240, 240 232, 240 200" stroke-width="8" class="generator__3-1--0-pos wire"></path><path d="M 280 240C 304 240, 320 232, 320 200" stroke-width="8" class="generator__2-1--0-pos wire"></path><path d="M 80 200C 80 168, 80 160, 80 160" stroke-width="8" class="generator__3-1--0-pos wire"></path><path d="M 160 200C 160 168, 176 160, 200 160" stroke-width="8" class="generator__2-1--0-pos wire"></path><path d="M 240 200C 240 168, 224.00002 160, 200 160" stroke-width="8" class="generator__3-1--0-pos wire"></path><path d="M 320 200C 320 168, 320 160, 320 160" stroke-width="8" class="generator__2-1--0-pos wire"></path><path d="M 80 160C 80 160, 80 152, 80 120" stroke-width="8" class="generator__3-1--0-pos wire"></path><path d="M 320 160C 320 160, 320 152, 320 120" stroke-width="8" class="generator__2-1--0-pos wire"></path><path d="M 80 120C 80 88, 128 80, 200 80" stroke-width="8" class="generator__3-1--0-pos wire"></path><path d="M 320 120C 320 88, 272 80, 200 80" stroke-width="8" class="generator__2-1--0-pos wire"></path><circle cx="280" cy="240" r="6" class="generator__5-2--0-neg point"></circle><circle cx="200" cy="160" r="6" class="generator__4-2--0-neg point"></circle><circle cx="200" cy="80" r="6" class="generator__5-2--0-pos point"></circle></svg>