<svg height="960" viewBox="0 0 560 960" width="560" xmlns="http://www.w3.org/2000/svg"><style>.wire{fill:none!important;}.point{stroke:none!important;}.generator__0-0--0-pos{fill:#2980b9;stroke:#2980b9;}.generator__0-0--0-zer{fill:#7bb9e2;stroke:#7bb9e2;}.generator__0-0--0-neg{fill:#194f72;stroke:#194f72;}.generator__0-0--1-pos{fill:#3896d3;stroke:#3896d3;}.generator__0-0--1-zer{fill:#9ccbe9;stroke:#9ccbe9;}.generator__0-0--1-neg{fill:#216693;stroke:#216693;}.generator__0-0--2-pos{fill:#59a7da;stroke:#59a7da;}.generator__0-0--2-zer{fill:#bedcf0;stroke:#bedcf0;}.generator__0-0--2-neg{fill:#287db5;stroke:#287db5;}.generator__1-0--0-pos{fill:#c0392b;stroke:#c0392b;}.generator__1-0--0-zer{fill:#e38b82;stroke:#e38b82;}.generator__1-0--0-neg{fill:#79241b;stroke:#79241b;}.generator__1-0--1-pos{fill:#d44e40;stroke:#d44e40;}.generator__1-0--1-zer{fill:#ebaaa4;stroke:#ebaaa4;}.generator__1-0--1-neg{fill:#9a2e23;stroke:#9a2e23;}.generator__1-0--2-pos{fill:#dc6d61;stroke:#dc6d61;}.generator__1-0--2-zer{fill:#f2c9c5;stroke:#f2c9c5;}.generator__1-0--2-neg{fill:#bc382a;stroke:#bc382a;}.generator__2-1--0-pos{fill:#f39c12;stroke:#f39c12;}.generator__2-1--0-zer{fill:#f9cd87;stroke:#f9cd87;}.generator__2-1--0-neg{fill:#a66908;stroke:#a66908;}.generator__2-1--1-pos{fill:#f5ac39;stroke:#f5ac39;}.generator__2-1--1-zer{fill:#fbddad;stroke:#fbddad;}.generator__2-1--1-neg{fill:#cd820a;stroke:#cd820a;}.generator__2-1--2-pos{fill:#f7bc60;stroke:#f7bc60;}.generator__2-1--2-zer{fill:#7f5006;stroke:#7f5006;}.generator__2-1--2-neg{fill:#f39a0d;stroke:#f39a0d;}.generator__3-1--0-pos{fill:#8e44ad;stroke:#8e44ad;}.generator__3-1--0-zer{fill:#c396d6;stroke:#c396d6;}.generator__3-1--0-neg{fill:#5b2c6f;stroke:#5b2c6f;}.generator__3-1--1-pos{fill:#a15bbf;stroke:#a15bbf;}.generator__3-1--1-zer{fill:#d4b3e1;stroke:#d4b3e1;}.generator__3-1--1-neg{fill:#73378c;stroke:#73378c;}.generator__3-1--2-pos{fill:#b278ca;stroke:#b278ca;}.generator__3-1--2-zer{fill:#e4d0ed;stroke:#e4d0ed;}.generator__3-1--2-neg{fill:#8b43a9;stroke:#8b43a9;}.generator__4-2--0-pos{fill:#27ae60;stroke:#27ae60;}.generator__4-2--0-zer{fill:#70df9f;stroke:#70df9f;}.generator__4-2--0-neg{fill:#d4f5e2;stroke:#d4f5e2;}.generator__4-2--1-pos{fill:#2ecf72;stroke:#2ecf72;}.generator__4-2--1-zer{fill:#92e7b6;stroke:#92e7b6;}.generator__4-2--1-neg{fill:#1f894b;stroke:#1f894b;}.generator__4-2--2-pos{fill:#4fd889;stroke:#4fd889;}.generator__4-2--2-zer{fill:#b3eecc;stroke:#b3eecc;}.generator__4-2--2-neg{fill:#26aa5e;stroke:#26aa5e;}.generator__5-2--0-pos{fill:#f1c40f;stroke:#f1c40f;}.generator__5-2--0-zer{fill:#f8e083;stroke:#f8e083;}.generator__5-2--0-neg{fill:#a08209;stroke:#a08209;}.generator__5-2--1-pos{fill:#f3cd36;stroke:#f3cd36;}.generator__5-2--1-zer{fill:#faeaa9;stroke:#faeaa9;}.generator__5-2--1-neg{fill:#c7a10c;stroke:#c7a10c;}.generator__5-2--2-pos{fill:#f5d75c;stroke:#f5d75c;}.generator__5-2--2-zer{fill:#fcf3d0;stroke:#fcf3d0;}.generator__5-2--2-neg{fill:#edc10e;stroke:#edc10e;}.generator__6-2--0-pos{fill:#f6f5f4;stroke:#f6f5f4;}.generator__6-2--0-zer{fill:#7e7367;stroke:#7e7367;}.generator__6-2--0-neg{fill:#b8b0a8;stroke:#b8b0a8;}.generator__6-2--1-pos{fill:#524a43;stroke:#524a43;}.generator__6-2--1-zer{fill:#93877b;stroke:#93877b;}.generator__6-2--1-neg{fill:#cac5bf;stroke:#cac5bf;}.generator__6-2--2-pos{fill:#685f55;stroke:#685f55;}.generator__6-2--2-zer{fill:#a69c92;stroke:#a69c92;}.generator__6-2--2-neg{fill:#ddd9d5;stroke:#ddd9d5;}.generator__7-3--0-pos{fill:#000000;stroke:#000000;}.generator__7-3--0-zer{fill:#3d3d3d;stroke:#3d3d3d;}.generator__7-3--0-neg{fill:#7a7a7a;stroke:#7a7a7a;}.generator__7-3--1-pos{fill:#141414;stroke:#141414;}.generator__7-3--1-zer{fill:#525252;stroke:#525252;}.generator__7-3--1-neg{fill:#8f8f8f;stroke:#8f8f8f;}.generator__7-3--2-pos{fill:#292929;stroke:#292929;}.generator__7-3--2-zer{fill:#666666;stroke:#666666;}.generator__7-3--2-neg{fill:#a3a3a3;stroke:#a3a3a3;}</style><title>$G$</title><path d="M 0 960L 560 960L 560 0L 0 0L 0 960" class="generator__3-1--0-pos surface"></path><path d="M 80 960L 80 920" class="generator__4-2--0-pos wire" stroke-width="8"></path><path d="M 320 960L 320 920" stroke-width="8" class="generator__6-2--0-pos wire"></path><path d="M 80 920C 80 888, 80 880, 80 880" stroke-width="8" class="generator__4-2--0-pos wire"></path><path d="M 320 920C 320 888, 320 880, 320 880" stroke-width="8" class="generator__6-2--0-pos wire"></path><path d="M 80 880C 80 880, 80 872, 80 840" stroke-width="8" class="generator__4-2--0-pos wire"></path><path d="M 320 880C 224.00002 880, 160 872, 160 840" stroke-width="8" class="generator__5-2--0-neg wire"></path><path d="M 320 880C 368 880, 400 872, 400 840" stroke-width="8" class="generator__4-2--0-neg wire"></path><path d="M 320 880C 416.00003 880, 480 872, 480 840" stroke-width="8" class="generator__5-2--0-pos wire"></path><path d="M 80 840C 80 808, 80 800, 80 800" stroke-width="8" class="generator__4-2--0-pos wire"></path><path d="M 160 840C 160 808, 160 800, 160 800" stroke-width="8" class="generator__5-2--0-neg wire"></path><path d="M 400 840C 400 808, 400 800, 400 800" stroke-width="8" class="generator__4-2--0-neg wire"></path><path d="M 480 840C 480 808, 480 800, 480 800" stroke-width="8" class="generator__5-2--0-pos wire"></path><path d="M 80 800C 80 800, 80 792, 80 760" stroke-width="8" class="generator__4-2--0-pos wire"></path><path d="M 160 800C 160 800, 160 792, 160 760" stroke-width="8" class="generator__5-2--0-neg wire"></path><path d="M 280 800C 256 800, 240 792, 240 760" stroke-width="8" class="generator__4-2--0-neg wire"></path><path d="M 280 800C 304 800, 320 792, 320 760" stroke-width="8" class="generator__4-2--0-pos wire"></path><path d="M 400 800C 400 800, 400 792, 400 760" stroke-width="8" class="generator__4-2--0-neg wire"></path><path d="M 480 800C 480 800, 480 792, 480 760" stroke-width="8" class="generator__5-2--0-pos wire"></path><path d="M 80 760C 80 728, 80 720, 80 720" stroke-width="8" class="generator__4-2--0-pos wire"></path><path d="M 160 760C 160 728, 160 720, 160 720" stroke-width="8" class="generator__5-2--0-neg wire"></path><path d="M 240 760C 240 728, 240 720, 240 720" stroke-width="8" class="generator__4-2--0-neg wire"></path><defs><mask id="workspace__diagram-mask-22" maskUnits="userSpaceOnUse"><rect fill="white" height="100%" width="100%"></rect><path d="M 360 680C 360 712, 360 704, 360 720" fill="none" stroke="black" stroke-linecap="round" stroke-width="16"></path><path d="M 400 760C 400 728, 360 736, 360 720" fill="none" stroke="black" stroke-linecap="round" stroke-width="16"></path></mask></defs><path d="M 320 760C 320 728, 360 736, 360 720" mask="url(#workspace__diagram-mask-22)" stroke-width="8" class="generator__4-2--0-pos wire"></path><path d="M 400 760C 400 728, 360 736, 360 720" stroke-width="8" class="generator__4-2--0-neg wire"></path><path d="M 480 760C 480 728, 480 720, 480 720" stroke-width="8" class="generator__5-2--0-pos wire"></path><path d="M 80 720C 80 720, 80 712, 80 680" stroke-width="8" class="generator__4-2--0-pos wire"></path><path d="M 160 720C 160 720, 160 712, 160 680" stroke-width="8" class="generator__5-2--0-neg wire"></path><path d="M 240 720C 240 720, 240 712, 240 680" stroke-width="8" class="generator__4-2--0-neg wire"></path><path d="M 360 720C 360 704, 360 712, 360 680" stroke-width="8" class="generator__4-2--0-neg wire"></path><path d="M 480 720C 480 720, 480 712, 480 680" stroke-width="8" class="generator__5-2--0-pos wire"></path><path d="M 80 680C 80 648, 80 640, 80 640" stroke-width="8" class="generator__4-2--0-pos wire"></path><path d="M 160 680C 160 648, 160 640, 160 640" stroke-width="8" class="generator__5-2--0-neg wire"></path><path d="M 240 680C 240 648, 240 640, 240 640" stroke-width="8" class="generator__4-2--0-neg wire"></path><path d="M 360 680C 360 648, 360 656, 360 640" stroke-width="8" class="generator__4-2--0-neg wire"></path><path d="M 480 680C 480 648, 480 640, 480 640" stroke-width="8" class="generator__5-2--0-pos wire"></path><path d="M 80 640C 80 640, 80 632, 80 600" stroke-width="8" class="generator__4-2--0-pos wire"></path><path d="M 160 640C 160 640, 160 632, 160 600" stroke-width="8" class="generator__5-2--0-neg wire"></path><path d="M 240 640C 240 640, 240 632, 240 600" stroke-width="8" class="generator__4-2--0-neg wire"></path><path d="M 360 640C 360 624, 320 632, 320 600" stroke-width="8" class="generator__4-2--0-neg wire"></path><defs><mask id="workspace__diagram-mask-39" maskUnits="userSpaceOnUse"><rect fill="white" height="100%" width="100%"></rect><path d="M 320 600C 320 632, 360 624, 360 640" fill="none" stroke="black" stroke-linecap="round" stroke-width="16"></path><path d="M 360 680C 360 648, 360 656, 360 640" fill="none" stroke="black" stroke-linecap="round" stroke-width="16"></path></mask></defs><path d="M 360 640C 360 624, 400 632, 400 600" mask="url(#workspace__diagram-mask-39)" stroke-width="8" class="generator__4-2--0-pos wire"></path><path d="M 480 640C 480 640, 480 632, 480 600" stroke-width="8" class="generator__5-2--0-pos wire"></path><path d="M 80 600C 80 568, 80 560, 80 560" stroke-width="8" class="generator__4-2--0-pos wire"></path><path d="M 160 600C 160 568, 160 560, 160 560" stroke-width="8" class="generator__5-2--0-neg wire"></path><path d="M 240 600C 240 568, 240 560, 240 560" stroke-width="8" class="generator__4-2--0-neg wire"></path><path d="M 320 600C 320 568, 336.00003 560, 360 560" stroke-width="8" class="generator__4-2--0-neg wire"></path><path d="M 400 600C 400 568, 384 560, 360 560" stroke-width="8" class="generator__4-2--0-pos wire"></path><path d="M 480 600C 480 568, 480 560, 480 560" stroke-width="8" class="generator__5-2--0-pos wire"></path><path d="M 80 560C 80 560, 80 552, 80 520" stroke-width="8" class="generator__4-2--0-pos wire"></path><path d="M 160 560C 160 560, 160 552, 160 520" stroke-width="8" class="generator__5-2--0-neg wire"></path><path d="M 240 560C 240 560, 240 552, 240 520" stroke-width="8" class="generator__4-2--0-neg wire"></path><path d="M 480 560C 480 560, 480 552, 480 520" stroke-width="8" class="generator__5-2--0-pos wire"></path><path d="M 80 520C 80 488, 80 480, 80 480" stroke-width="8" class="generator__4-2--0-pos wire"></path><path d="M 160 520C 160 488, 160 480, 160 480" stroke-width="8" class="generator__5-2--0-neg wire"></path><defs><mask id="workspace__diagram-mask-53" maskUnits="userSpaceOnUse"><rect fill="white" height="100%" width="100%"></rect><path d="M 360 440C 360 471.99997, 360 463.99997, 360 480" fill="none" stroke="black" stroke-linecap="round" stroke-width="16"></path><path d="M 480 520C 480 488, 360 496, 360 480" fill="none" stroke="black" stroke-linecap="round" stroke-width="16"></path></mask></defs><path d="M 240 520C 240 488, 360 496, 360 480" mask="url(#workspace__diagram-mask-53)" stroke-width="8" class="generator__4-2--0-neg wire"></path><path d="M 480 520C 480 488, 360 496, 360 480" stroke-width="8" class="generator__5-2--0-pos wire"></path><path d="M 80 480C 80 480, 80 471.99997, 80 440" stroke-width="8" class="generator__4-2--0-pos wire"></path><path d="M 160 480C 160 480, 160 471.99997, 160 440" stroke-width="8" class="generator__5-2--0-neg wire"></path><path d="M 360 480C 360 463.99997, 360 471.99997, 360 440" stroke-width="8" class="generator__5-2--0-pos wire"></path><path d="M 80 440C 80 408, 80 400, 80 400" stroke-width="8" class="generator__4-2--0-pos wire"></path><path d="M 160 440C 160 408, 160 400, 160 400" stroke-width="8" class="generator__5-2--0-neg wire"></path><path d="M 360 440C 360 408, 360 416, 360 400" stroke-width="8" class="generator__5-2--0-pos wire"></path><path d="M 80 400C 80 400, 80 392, 80 360" stroke-width="8" class="generator__4-2--0-pos wire"></path><path d="M 160 400C 160 400, 160 392, 160 360" stroke-width="8" class="generator__5-2--0-neg wire"></path><path d="M 360 400C 360 384, 320 392, 320 360" stroke-width="8" class="generator__5-2--0-pos wire"></path><defs><mask id="workspace__diagram-mask-64" maskUnits="userSpaceOnUse"><rect fill="white" height="100%" width="100%"></rect><path d="M 320 360C 320 392, 360 384, 360 400" fill="none" stroke="black" stroke-linecap="round" stroke-width="16"></path><path d="M 360 440C 360 408, 360 416, 360 400" fill="none" stroke="black" stroke-linecap="round" stroke-width="16"></path></mask></defs><path d="M 360 400C 360 384, 400 392, 400 360" mask="url(#workspace__diagram-mask-64)" stroke-width="8" class="generator__4-2--0-neg wire"></path><path d="M 80 360C 80 328, 80 320, 80 320" stroke-width="8" class="generator__4-2--0-pos wire"></path><defs><mask id="workspace__diagram-mask-66" maskUnits="userSpaceOnUse"><rect fill="white" height="100%" width="100%"></rect><path d="M 240 280C 240 312, 240 303.99994, 240 320" fill="none" stroke="black" stroke-linecap="round" stroke-width="16"></path><path d="M 320 360C 320 328, 240 336, 240 320" fill="none" stroke="black" stroke-linecap="round" stroke-width="16"></path></mask></defs><path d="M 160 360C 160 328, 240 336, 240 320" mask="url(#workspace__diagram-mask-66)" stroke-width="8" class="generator__5-2--0-neg wire"></path><path d="M 320 360C 320 328, 240 336, 240 320" stroke-width="8" class="generator__5-2--0-pos wire"></path><path d="M 400 360C 400 328, 400 320, 400 320" stroke-width="8" class="generator__4-2--0-neg wire"></path><path d="M 80 320C 80 320, 80 312, 80 280" stroke-width="8" class="generator__4-2--0-pos wire"></path><path d="M 240 320C 240 303.99994, 240 312, 240 280" stroke-width="8" class="generator__5-2--0-pos wire"></path><path d="M 400 320C 400 320, 400 312, 400 280" stroke-width="8" class="generator__4-2--0-neg wire"></path><path d="M 80 280C 80 247.99994, 80 240, 80 240" stroke-width="8" class="generator__4-2--0-pos wire"></path><path d="M 240 280C 240 247.99994, 240 256, 240 240" stroke-width="8" class="generator__5-2--0-pos wire"></path><path d="M 400 280C 400 247.99994, 400 240, 400 240" stroke-width="8" class="generator__4-2--0-neg wire"></path><path d="M 80 240C 80 240, 80 232, 80 200" stroke-width="8" class="generator__4-2--0-pos wire"></path><path d="M 240 240C 240 224, 200 232, 200 200" stroke-width="8" class="generator__5-2--0-pos wire"></path><defs><mask id="workspace__diagram-mask-77" maskUnits="userSpaceOnUse"><rect fill="white" height="100%" width="100%"></rect><path d="M 200 200C 200 232, 240 224, 240 240" fill="none" stroke="black" stroke-linecap="round" stroke-width="16"></path><path d="M 240 280C 240 247.99994, 240 256, 240 240" fill="none" stroke="black" stroke-linecap="round" stroke-width="16"></path></mask></defs><path d="M 240 240C 240 224, 280 232, 280 200" mask="url(#workspace__diagram-mask-77)" stroke-width="8" class="generator__5-2--0-neg wire"></path><path d="M 400 240C 400 240, 400 232, 400 200" stroke-width="8" class="generator__4-2--0-neg wire"></path><path d="M 80 200C 80 168, 80 160, 80 160" stroke-width="8" class="generator__4-2--0-pos wire"></path><path d="M 200 200C 200 168, 216 160, 240 160" stroke-width="8" class="generator__5-2--0-pos wire"></path><path d="M 280 200C 280 168, 264 160, 240 160" stroke-width="8" class="generator__5-2--0-neg wire"></path><path d="M 400 200C 400 168, 400 160, 400 160" stroke-width="8" class="generator__4-2--0-neg wire"></path><path d="M 80 160C 80 160, 80 152, 80 120" stroke-width="8" class="generator__4-2--0-pos wire"></path><path d="M 400 160C 400 160, 400 152, 400 120" stroke-width="8" class="generator__4-2--0-neg wire"></path><path d="M 80 120C 80 87.99994, 144 80, 240 80" stroke-width="8" class="generator__4-2--0-pos wire"></path><path d="M 400 120C 400 87.99994, 336 80, 240 80" stroke-width="8" class="generator__4-2--0-neg wire"></path><circle cx="320" cy="880" r="6" class="generator__7-3--0-pos point"></circle><circle cx="280" cy="800" r="6" class="generator__4-2--1-zer point"></circle><circle cx="360" cy="560" r="6" class="generator__4-2--1-zer point"></circle><circle cx="240" cy="160" r="6" class="generator__5-2--1-zer point"></circle><circle cx="240" cy="80" r="6" class="generator__4-2--1-zer point"></circle></svg>