<svg height="720" viewBox="0 0 560 720" width="560" xmlns="http://www.w3.org/2000/svg"><style>.wire{fill:none!important;}.point{stroke:none!important;}.generator__0-0--0-pos{fill:#2980b9;stroke:#2980b9;}.generator__0-0--0-zer{fill:#7bb9e2;stroke:#7bb9e2;}.generator__0-0--0-neg{fill:#194f72;stroke:#194f72;}.generator__0-0--1-pos{fill:#3896d3;stroke:#3896d3;}.generator__0-0--1-zer{fill:#9ccbe9;stroke:#9ccbe9;}.generator__0-0--1-neg{fill:#216693;stroke:#216693;}.generator__0-0--2-pos{fill:#59a7da;stroke:#59a7da;}.generator__0-0--2-zer{fill:#bedcf0;stroke:#bedcf0;}.generator__0-0--2-neg{fill:#287db5;stroke:#287db5;}.generator__1-0--0-pos{fill:#c0392b;stroke:#c0392b;}.generator__1-0--0-zer{fill:#e38b82;stroke:#e38b82;}.generator__1-0--0-neg{fill:#79241b;stroke:#79241b;}.generator__1-0--1-pos{fill:#d44e40;stroke:#d44e40;}.generator__1-0--1-zer{fill:#ebaaa4;stroke:#ebaaa4;}.generator__1-0--1-neg{fill:#9a2e23;stroke:#9a2e23;}.generator__1-0--2-pos{fill:#dc6d61;stroke:#dc6d61;}.generator__1-0--2-zer{fill:#f2c9c5;stroke:#f2c9c5;}.generator__1-0--2-neg{fill:#bc382a;stroke:#bc382a;}.generator__2-1--0-pos{fill:#f39c12;stroke:#f39c12;}.generator__2-1--0-zer{fill:#f9cd87;stroke:#f9cd87;}.generator__2-1--0-neg{fill:#a66908;stroke:#a66908;}.generator__2-1--1-pos{fill:#f5ac39;stroke:#f5ac39;}.generator__2-1--1-zer{fill:#fbddad;stroke:#fbddad;}.generator__2-1--1-neg{fill:#cd820a;stroke:#cd820a;}.generator__2-1--2-pos{fill:#f7bc60;stroke:#f7bc60;}.generator__2-1--2-zer{fill:#7f5006;stroke:#7f5006;}.generator__2-1--2-neg{fill:#f39a0d;stroke:#f39a0d;}.generator__3-1--0-pos{fill:#8e44ad;stroke:#8e44ad;}.generator__3-1--0-zer{fill:#c396d6;stroke:#c396d6;}.generator__3-1--0-neg{fill:#5b2c6f;stroke:#5b2c6f;}.generator__3-1--1-pos{fill:#a15bbf;stroke:#a15bbf;}.generator__3-1--1-zer{fill:#d4b3e1;stroke:#d4b3e1;}.generator__3-1--1-neg{fill:#73378c;stroke:#73378c;}.generator__3-1--2-pos{fill:#b278ca;stroke:#b278ca;}.generator__3-1--2-zer{fill:#e4d0ed;stroke:#e4d0ed;}.generator__3-1--2-neg{fill:#8b43a9;stroke:#8b43a9;}.generator__4-2--0-pos{fill:#27ae60;stroke:#27ae60;}.generator__4-2--0-zer{fill:#70df9f;stroke:#70df9f;}.generator__4-2--0-neg{fill:#d4f5e2;stroke:#d4f5e2;}.generator__4-2--1-pos{fill:#2ecf72;stroke:#2ecf72;}.generator__4-2--1-zer{fill:#92e7b6;stroke:#92e7b6;}.generator__4-2--1-neg{fill:#1f894b;stroke:#1f894b;}.generator__4-2--2-pos{fill:#4fd889;stroke:#4fd889;}.generator__4-2--2-zer{fill:#b3eecc;stroke:#b3eecc;}.generator__4-2--2-neg{fill:#26aa5e;stroke:#26aa5e;}.generator__5-2--0-pos{fill:#f1c40f;stroke:#f1c40f;}.generator__5-2--0-zer{fill:#f8e083;stroke:#f8e083;}.generator__5-2--0-neg{fill:#a08209;stroke:#a08209;}.generator__5-2--1-pos{fill:#f3cd36;stroke:#f3cd36;}.generator__5-2--1-zer{fill:#faeaa9;stroke:#faeaa9;}.generator__5-2--1-neg{fill:#c7a10c;stroke:#c7a10c;}.generator__5-2--2-pos{fill:#f5d75c;stroke:#f5d75c;}.generator__5-2--2-zer{fill:#fcf3d0;stroke:#fcf3d0;}.generator__5-2--2-neg{fill:#edc10e;stroke:#edc10e;}.generator__6-2--0-pos{fill:#f6f5f4;stroke:#f6f5f4;}.generator__6-2--0-zer{fill:#7e7367;stroke:#7e7367;}.generator__6-2--0-neg{fill:#b8b0a8;stroke:#b8b0a8;}.generator__6-2--1-pos{fill:#524a43;stroke:#524a43;}.generator__6-2--1-zer{fill:#93877b;stroke:#93877b;}.generator__6-2--1-neg{fill:#cac5bf;stroke:#cac5bf;}.generator__6-2--2-pos{fill:#685f55;stroke:#685f55;}.generator__6-2--2-zer{fill:#a69c92;stroke:#a69c92;}.generator__6-2--2-neg{fill:#ddd9d5;stroke:#ddd9d5;}.generator__7-3--0-pos{fill:#000000;stroke:#000000;}.generator__7-3--0-zer{fill:#3d3d3d;stroke:#3d3d3d;}.generator__7-3--0-neg{fill:#7a7a7a;stroke:#7a7a7a;}.generator__7-3--1-pos{fill:#141414;stroke:#141414;}.generator__7-3--1-zer{fill:#525252;stroke:#525252;}.generator__7-3--1-neg{fill:#8f8f8f;stroke:#8f8f8f;}.generator__7-3--2-pos{fill:#292929;stroke:#292929;}.generator__7-3--2-zer{fill:#666666;stroke:#666666;}.generator__7-3--2-neg{fill:#a3a3a3;stroke:#a3a3a3;}</style><title>$G$</title><path d="M 0 720L 560 720L 560 0L 0 0L 0 720" class="generator__3-1--0-pos surface"></path><path d="M 80 720L 80 680" stroke-width="8" class="generator__4-2--0-pos wire"></path><path d="M 320 720L 320 680" stroke-width="8" class="generator__6-2--0-pos wire"></path><path d="M 80 680C 80 648, 80 640, 80 640" stroke-width="8" class="generator__4-2--0-pos wire"></path><path d="M 320 680C 320 648, 320 640, 320 640" stroke-width="8" class="generator__6-2--0-pos wire"></path><path d="M 80 640C 80 640, 80 632, 80 600" stroke-width="8" class="generator__4-2--0-pos wire"></path><path d="M 320 640C 224.00002 640, 160 632, 160 600" stroke-width="8" class="generator__5-2--0-neg wire"></path><path d="M 320 640C 368 640, 400 632, 400 600" stroke-width="8" class="generator__4-2--0-neg wire"></path><path d="M 320 640C 416.00003 640, 480 632, 480 600" stroke-width="8" class="generator__5-2--0-pos wire"></path><path d="M 80 600C 80 568, 80 560, 80 560" stroke-width="8" class="generator__4-2--0-pos wire"></path><path d="M 160 600C 160 568, 160 560, 160 560" stroke-width="8" class="generator__5-2--0-neg wire"></path><path d="M 400 600C 400 568, 400 560, 400 560" stroke-width="8" class="generator__4-2--0-neg wire"></path><path d="M 480 600C 480 568, 480 560, 480 560" stroke-width="8" class="generator__5-2--0-pos wire"></path><path d="M 80 560C 80 560, 80 552, 80 520" stroke-width="8" class="generator__4-2--0-pos wire"></path><path d="M 160 560C 160 560, 160 552, 160 520" stroke-width="8" class="generator__5-2--0-neg wire"></path><path d="M 280 560C 256 560, 240 552, 240 520" stroke-width="8" class="generator__4-2--0-neg wire"></path><path d="M 280 560C 304 560, 320 552, 320 520" stroke-width="8" class="generator__4-2--0-pos wire"></path><path d="M 400 560C 400 560, 400 552, 400 520" stroke-width="8" class="generator__4-2--0-neg wire"></path><path d="M 480 560C 480 560, 480 552, 480 520" stroke-width="8" class="generator__5-2--0-pos wire"></path><path d="M 80 520C 80 488, 80 480, 80 480" stroke-width="8" class="generator__4-2--0-pos wire"></path><path d="M 160 520C 160 488, 160 480, 160 480" stroke-width="8" class="generator__5-2--0-neg wire"></path><path d="M 240 520C 240 488, 240 480, 240 480" stroke-width="8" class="generator__4-2--0-neg wire"></path><defs><mask id="workspace__diagram-mask-22" maskUnits="userSpaceOnUse"><rect fill="white" height="100%" width="100%"></rect><path d="M 320 440C 320 472, 336.00003 480, 360 480" fill="none" stroke="black" stroke-linecap="round" stroke-width="16"></path><path d="M 400 520C 400 488, 384 480, 360 480" fill="none" stroke="black" stroke-linecap="round" stroke-width="16"></path></mask></defs><path d="M 320 520C 320 488, 336.00003 480, 360 480" mask="url(#workspace__diagram-mask-22)" stroke-width="8" class="generator__4-2--0-pos wire"></path><path d="M 400 520C 400 488, 384 480, 360 480" stroke-width="8" class="generator__4-2--0-neg wire"></path><path d="M 480 520C 480 488, 480 480, 480 480" stroke-width="8" class="generator__5-2--0-pos wire"></path><path d="M 80 480C 80 480, 80 472, 80 440" stroke-width="8" class="generator__4-2--0-pos wire"></path><path d="M 160 480C 160 480, 160 472, 160 440" stroke-width="8" class="generator__5-2--0-neg wire"></path><path d="M 240 480C 240 480, 240 472, 240 440" stroke-width="8" class="generator__4-2--0-neg wire"></path><path d="M 360 480C 336.00003 480, 320 472, 320 440" stroke-width="8" class="generator__4-2--0-neg wire"></path><defs><mask id="workspace__diagram-mask-29" maskUnits="userSpaceOnUse"><rect fill="white" height="100%" width="100%"></rect><path d="M 320 440C 320 472, 336.00003 480, 360 480" fill="none" stroke="black" stroke-linecap="round" stroke-width="16"></path><path d="M 400 520C 400 488, 384 480, 360 480" fill="none" stroke="black" stroke-linecap="round" stroke-width="16"></path></mask></defs><path d="M 360 480C 384 480, 400 472, 400 440" mask="url(#workspace__diagram-mask-29)" stroke-width="8" class="generator__4-2--0-pos wire"></path><path d="M 480 480C 480 480, 480 472, 480 440" stroke-width="8" class="generator__5-2--0-pos wire"></path><path d="M 80 440C 80 408, 80 400, 80 400" stroke-width="8" class="generator__4-2--0-pos wire"></path><path d="M 160 440C 160 408, 160 400, 160 400" stroke-width="8" class="generator__5-2--0-neg wire"></path><path d="M 240 440C 240 408, 240 400, 240 400" stroke-width="8" class="generator__4-2--0-neg wire"></path><path d="M 320 440C 320 408, 336.00003 400, 360 400" stroke-width="8" class="generator__4-2--0-neg wire"></path><path d="M 400 440C 400 408, 384 400, 360 400" stroke-width="8" class="generator__4-2--0-pos wire"></path><path d="M 480 440C 480 408, 480 400, 480 400" stroke-width="8" class="generator__5-2--0-pos wire"></path><path d="M 80 400C 80 400, 80 392, 80 360" stroke-width="8" class="generator__4-2--0-pos wire"></path><path d="M 160 400C 160 400, 160 392, 160 360" stroke-width="8" class="generator__5-2--0-neg wire"></path><path d="M 240 400C 240 400, 240 392, 240 360" stroke-width="8" class="generator__4-2--0-neg wire"></path><path d="M 480 400C 480 400, 480 392, 480 360" stroke-width="8" class="generator__5-2--0-pos wire"></path><path d="M 80 360C 80 328, 80 320, 80 320" stroke-width="8" class="generator__4-2--0-pos wire"></path><path d="M 160 360C 160 328, 160 320, 160 320" stroke-width="8" class="generator__5-2--0-neg wire"></path><defs><mask id="workspace__diagram-mask-43" maskUnits="userSpaceOnUse"><rect fill="white" height="100%" width="100%"></rect><path d="M 320 280C 320 312, 336.00003 320, 360 320" fill="none" stroke="black" stroke-linecap="round" stroke-width="16"></path><path d="M 480 360C 480 328, 432 320, 360 320" fill="none" stroke="black" stroke-linecap="round" stroke-width="16"></path></mask></defs><path d="M 240 360C 240 328, 288 320, 360 320" mask="url(#workspace__diagram-mask-43)" stroke-width="8" class="generator__4-2--0-neg wire"></path><path d="M 480 360C 480 328, 432 320, 360 320" stroke-width="8" class="generator__5-2--0-pos wire"></path><path d="M 80 320C 80 320, 80 312, 80 280" stroke-width="8" class="generator__4-2--0-pos wire"></path><path d="M 160 320C 160 320, 160 312, 160 280" stroke-width="8" class="generator__5-2--0-neg wire"></path><path d="M 360 320C 336.00003 320, 320 312, 320 280" stroke-width="8" class="generator__5-2--0-pos wire"></path><defs><mask id="workspace__diagram-mask-48" maskUnits="userSpaceOnUse"><rect fill="white" height="100%" width="100%"></rect><path d="M 320 280C 320 312, 336.00003 320, 360 320" fill="none" stroke="black" stroke-linecap="round" stroke-width="16"></path><path d="M 480 360C 480 328, 432 320, 360 320" fill="none" stroke="black" stroke-linecap="round" stroke-width="16"></path></mask></defs><path d="M 360 320C 384 320, 400 312, 400 280" mask="url(#workspace__diagram-mask-48)" stroke-width="8" class="generator__4-2--0-neg wire"></path><path d="M 80 280C 80 248, 80 240, 80 240" stroke-width="8" class="generator__4-2--0-pos wire"></path><defs><mask id="workspace__diagram-mask-50" maskUnits="userSpaceOnUse"><rect fill="white" height="100%" width="100%"></rect><path d="M 200 200C 200 231.99997, 216 240, 240 240" fill="none" stroke="black" stroke-linecap="round" stroke-width="16"></path><path d="M 320 280C 320 248, 288 240, 240 240" fill="none" stroke="black" stroke-linecap="round" stroke-width="16"></path></mask></defs><path d="M 160 280C 160 248, 192 240, 240 240" mask="url(#workspace__diagram-mask-50)" stroke-width="8" class="generator__5-2--0-neg wire"></path><path d="M 320 280C 320 248, 288 240, 240 240" stroke-width="8" class="generator__5-2--0-pos wire"></path><path d="M 400 280C 400 248, 400 240, 400 240" stroke-width="8" class="generator__4-2--0-neg wire"></path><path d="M 80 240C 80 240, 80 231.99997, 80 200" stroke-width="8" class="generator__4-2--0-pos wire"></path><path d="M 240 240C 216 240, 200 231.99997, 200 200" stroke-width="8" class="generator__5-2--0-pos wire"></path><defs><mask id="workspace__diagram-mask-55" maskUnits="userSpaceOnUse"><rect fill="white" height="100%" width="100%"></rect><path d="M 200 200C 200 231.99997, 216 240, 240 240" fill="none" stroke="black" stroke-linecap="round" stroke-width="16"></path><path d="M 320 280C 320 248, 288 240, 240 240" fill="none" stroke="black" stroke-linecap="round" stroke-width="16"></path></mask></defs><path d="M 240 240C 264 240, 280 231.99997, 280 200" mask="url(#workspace__diagram-mask-55)" stroke-width="8" class="generator__5-2--0-neg wire"></path><path d="M 400 240C 400 240, 400 231.99997, 400 200" stroke-width="8" class="generator__4-2--0-neg wire"></path><path d="M 80 200C 80 168, 80 160, 80 160" stroke-width="8" class="generator__4-2--0-pos wire"></path><path d="M 200 200C 200 168, 216 160, 240 160" stroke-width="8" class="generator__5-2--0-pos wire"></path><path d="M 280 200C 280 168, 264 160, 240 160" stroke-width="8" class="generator__5-2--0-neg wire"></path><path d="M 400 200C 400 168, 400 160, 400 160" stroke-width="8" class="generator__4-2--0-neg wire"></path><path d="M 80 160C 80 160, 80 152, 80 120" stroke-width="8" class="generator__4-2--0-pos wire"></path><path d="M 400 160C 400 160, 400 152, 400 120" stroke-width="8" class="generator__4-2--0-neg wire"></path><path d="M 80 120C 80 88, 144 80, 240 80" stroke-width="8" class="generator__4-2--0-pos wire"></path><path d="M 400 120C 400 88, 336 80, 240 80" stroke-width="8" class="generator__4-2--0-neg wire"></path><circle cx="320" cy="640" r="6" class="generator__7-3--0-pos point"></circle><circle cx="280" cy="560" r="6" class="generator__4-2--1-zer point"></circle><circle cx="360" cy="400" r="6" class="generator__4-2--1-zer point"></circle><circle cx="240" cy="160" r="6" class="generator__5-2--1-zer point"></circle><circle cx="240" cy="80" r="6" class="generator__4-2--1-zer point"></circle></svg>